<?xml version="1.0" encoding="utf-8"?>
<!-- Generator: Adobe Illustrator 16.0.0, SVG Export Plug-In . SVG Version: 6.00 Build 0)  -->
<!DOCTYPE svg PUBLIC "-//W3C//DTD SVG 1.1//EN" "http://www.w3.org/Graphics/SVG/1.1/DTD/svg11.dtd">
<svg version="1.1" id="Layer_1" xmlns="http://www.w3.org/2000/svg" xmlns:xlink="http://www.w3.org/1999/xlink" x="0px" y="0px"
	 width="500px" height="500px" viewBox="0 0 500 500" enable-background="new 0 0 500 500" xml:space="preserve">
<path fill="#C92422" d="M241.345,229.721c4,4,6,8.8,6,14.4v0.4v147.199c0,5.602-1.07,10.863-3.201,15.801
	c-2.137,4.932-5.068,9.262-8.799,13c-3.738,3.73-8.139,6.662-13.201,8.801c-5.068,2.131-10.4,3.199-16,3.199
	c-7.469,0-14.268-1.869-20.4-5.6c6.133-3.469,11.062-8.27,14.801-14.4c3.73-6.137,5.6-13.068,5.6-20.801V264.521h-80v69.6
	c0,5.6-1.938,10.4-5.799,14.4c-3.869,4-8.738,6-14.602,6c-5.6,0-10.398-2-14.398-6s-6-8.801-6-14.4v-69.6h-6
	c-5.602,0-10.87-1.062-15.801-3.199c-4.938-2.133-9.269-5.001-13-8.602c-3.737-3.599-6.668-7.931-8.8-13
	c-2.138-5.062-3.2-10.4-3.2-16c0-7.2,1.731-14,5.2-20.4c3.731,6.138,8.663,11.069,14.8,14.8c6.131,3.737,13.062,5.6,20.801,5.6h6
	v-109.2c0-5.6,1.062-10.863,3.199-15.8c2.131-4.931,5.062-9.262,8.801-13c3.73-3.731,8.062-6.662,13-8.8
	c4.93-2.131,10.199-3.2,15.799-3.2c7.201,0,14.131,1.869,20.801,5.6c-6.139,3.469-11.139,8.269-15,14.4
	c-3.869,6.138-5.801,13.069-5.801,20.8v109.2h16.4l69.6-109.2c4-6.4,6.131-13.263,6.4-20.6c0.262-7.331-1.199-14.062-4.4-20.2
	c3.463,0.269,6.932,0.869,10.4,1.8c3.463,0.938,6.662,2.469,9.6,4.6c4.801,3.2,8.732,7,11.801,11.4c3.062,4.4,5.131,9.2,6.199,14.4
	c1.062,5.2,1.201,10.469,0.4,15.8c-0.801,5.338-2.801,10.4-6,15.2l-55.199,86.8h35.6
	C232.544,223.721,237.345,225.721,241.345,229.721z"/>
<path fill="#C92422" d="M461.457,348.945c0,5.6-1.068,10.938-3.199,16c-2.139,5.062-5.068,9.463-8.801,13.199
	c-3.736,3.732-8.137,6.662-13.199,8.801c-5.068,2.131-10.4,3.199-16,3.199c-7.469,0-14.27-1.869-20.4-5.6
	c6.131-3.738,11.062-8.668,14.801-14.801c3.73-6.137,5.6-13.062,5.6-20.799v-122.8h-85.6v112.4c0,5.869-2,10.738-6,14.6
	c-4,3.869-8.938,5.801-14.801,5.801c-5.6,0-10.4-1.932-14.4-5.801c-4-3.861-6-8.73-6-14.6v-112.4c-5.6,0-10.869-1.131-15.799-3.4
	c-4.938-2.263-9.201-5.263-12.801-9c-3.6-3.731-6.469-8.062-8.6-13c-2.139-4.931-3.201-10.2-3.201-15.8
	c0-7.462,1.863-14.262,5.602-20.4c3.461,6.138,8.262,11.069,14.398,14.8c6.133,3.737,12.932,5.6,20.4,5.6v-63.2
	c-5.6,0-10.869-1.131-15.799-3.4c-4.938-2.263-9.201-5.2-12.801-8.8s-6.469-7.862-8.6-12.8c-2.139-4.931-3.201-10.2-3.201-15.8
	c0-7.731,1.863-14.662,5.602-20.8c3.461,6.138,8.262,11.138,14.398,15c6.133,3.869,13.062,5.8,20.801,5.8l20-0.4
	c5.863,0,10.801,2,14.801,6s6,8.938,6,14.8v83.6h85.6v-83.2c0-5.6,2-10.4,6-14.4s8.799-6,14.4-6c5.861,0,10.799,2,14.799,6
	s6,8.8,6,14.4V348.945z"/>
</svg>
